<svg width="182" height="28" viewBox="0 0 182 28" fill="none" xmlns="http://www.w3.org/2000/svg">
<path d="M5.31015 21.5263L5.49445 16.8671C3.87258 16.7955 2.60703 16.4251 1.6978 15.7561C0.813138 15.0632 0.370809 14.2627 0.370809 13.3548C0.370809 12.4469 0.813138 11.6584 1.6978 10.9894C2.60703 10.3203 3.87258 9.86641 5.49445 9.62746C5.27329 5.97178 5.16271 3.89306 5.16271 3.3913C5.16271 1.14533 7.39895 0.0223389 11.8714 0.0223389C15.0168 0.0223389 17.4496 0.65551 19.1698 1.92186C20.9145 3.16432 21.7869 4.71738 21.7869 6.58106C21.7869 8.44474 20.8285 10.177 18.9118 11.7779C22.1801 13.5221 23.8142 15.8397 23.8142 18.7308C23.8142 20.6184 23.2122 22.2909 22.0081 23.7484C20.8039 25.182 19.2435 26.2453 17.3268 26.9382C15.41 27.6311 13.481 27.9775 11.5396 27.9775C9.3771 27.9775 7.39895 27.7267 5.60504 27.2249C3.81114 26.6992 2.43501 26.0899 1.47663 25.3971C0.518252 24.7042 0.0390625 24.1307 0.0390625 23.6767C0.0390625 23.1989 0.161932 22.8405 0.40767 22.6015C0.65341 22.3387 0.948296 22.2073 1.29233 22.2073C1.29233 22.2073 1.34147 22.2073 1.43977 22.2073C1.56264 22.2073 1.89439 22.3746 2.43501 22.7091C3.00021 23.0197 3.62684 23.39 4.31491 23.8201C5.02755 24.2502 5.94905 24.6325 7.07947 24.967C8.23442 25.3015 9.3771 25.4687 10.5075 25.4687C10.5812 25.4687 10.655 25.4687 10.7287 25.4687C13.6529 25.4687 16.0735 24.8475 17.9902 23.6051C19.907 22.3626 20.8654 20.7618 20.8654 18.8025C20.8654 17.6795 20.5214 16.6402 19.8333 15.6844C19.1452 14.7287 18.2114 13.9641 17.0319 13.3907C14.5007 15.2066 11.5396 16.3295 8.14843 16.7596L8.29587 21.3471C8.29587 21.4427 8.29587 21.5263 8.29587 21.598C8.29587 22.2192 8.07471 22.6613 7.63238 22.9241C7.36209 23.0914 7.09173 23.175 6.82144 23.175L6.01051 22.9241C5.5436 22.6374 5.31015 22.1715 5.31015 21.5263ZM8.07471 3.35546C8.07471 4.19173 8.0993 6.21073 8.14843 9.41242C11.1219 9.41242 13.9356 9.86641 16.5895 10.7743C18.236 9.55578 19.0592 8.21777 19.0592 6.76026C19.0592 5.30276 18.4448 4.23952 17.2162 3.5705C15.9875 2.87759 14.4516 2.53114 12.6086 2.53114C10.7901 2.53114 9.27884 2.80591 8.07471 3.35546ZM8.07471 11.8495V14.3225C9.15594 14.2747 10.3478 14.0716 11.6502 13.7132C12.9772 13.3309 14.0093 12.9008 14.7465 12.423C13.3949 11.9929 11.515 11.7779 9.10681 11.7779C8.66448 11.7779 8.32047 11.8018 8.07471 11.8495ZM5.53132 14.4659V12.0287C3.78657 12.2199 2.9142 12.6141 2.9142 13.2115C2.9142 13.9999 3.78657 14.4181 5.53132 14.4659ZM30.0875 18.5158C30.0875 20.4989 30.6527 22.1834 31.7831 23.5692C32.9135 24.9551 34.3265 25.6479 36.0221 25.6479C37.7423 25.6479 39.1921 24.9551 40.3716 23.5692C41.5758 22.1595 42.1778 20.4631 42.1778 18.4799C42.1778 16.4968 41.6003 14.8123 40.4454 13.4265C39.3149 12.0168 37.902 11.3119 36.2064 11.3119C34.5354 11.3119 33.0855 12.0168 31.8568 13.4265C30.6773 14.8362 30.0875 16.5327 30.0875 18.5158ZM29.9032 25.2537C28.2813 23.4139 27.4704 21.1679 27.4704 18.5158C27.4704 15.8636 28.2936 13.6176 29.94 11.7779C31.5865 9.91418 33.663 8.98234 36.1695 8.98234C38.676 8.98234 40.7402 9.90225 42.3621 11.742C43.984 13.5579 44.7949 15.8039 44.7949 18.4799C44.7949 21.1321 43.9594 23.3781 42.2884 25.2179C40.6419 27.0576 38.5655 27.9775 36.0589 27.9775C33.577 27.9775 31.5251 27.0696 29.9032 25.2537ZM50.7857 18.5158C50.7857 20.4989 51.3508 22.1834 52.4813 23.5692C53.6117 24.9551 55.0247 25.6479 56.7202 25.6479C58.4403 25.6479 59.8906 24.9551 61.0701 23.5692C62.2738 22.1595 62.8763 20.4631 62.8763 18.4799C62.8763 16.4968 62.2986 14.8123 61.1438 13.4265C60.0132 12.0168 58.6004 11.3119 56.9046 11.3119C55.2336 11.3119 53.7837 12.0168 52.555 13.4265C51.3754 14.8362 50.7857 16.5327 50.7857 18.5158ZM50.6014 25.2537C48.9795 23.4139 48.1686 21.1679 48.1686 18.5158C48.1686 15.8636 48.9918 13.6176 50.6382 11.7779C52.2847 9.91418 54.3612 8.98234 56.8677 8.98234C59.3745 8.98234 61.4387 9.90225 63.0606 11.742C64.6825 13.5579 65.4934 15.8039 65.4934 18.4799C65.4934 21.1321 64.6577 23.3781 62.9869 25.2179C61.3402 27.0576 59.2639 27.9775 56.7571 27.9775C54.2752 27.9775 52.2232 27.0696 50.6014 25.2537ZM72.5897 18.1932L72.7002 25.9705C72.7002 27.1891 72.2332 27.7983 71.2995 27.7983C70.169 27.7983 69.6039 26.9859 69.6039 25.3612C69.6039 23.7126 69.8499 21.3232 70.3412 18.1932C70.3412 16.5685 70.2306 13.5101 70.0094 9.01818C69.7883 4.50234 69.6777 2.06522 69.6777 1.70682C69.6777 1.34842 69.8003 1.00197 70.0463 0.667461C70.3164 0.332952 70.5871 0.165699 70.8572 0.165699C71.1521 0.165699 71.4222 0.225432 71.6682 0.344899C72.2579 0.607725 72.5528 1.07365 72.5528 1.74266C72.5528 1.83823 72.5528 1.92186 72.5528 1.99354V13.7132C74.3469 10.6787 76.5585 9.16154 79.1877 9.16154C80.5885 9.16154 81.719 9.56771 82.5789 10.3801C83.4636 11.1686 83.9059 12.1602 83.9059 13.3548C83.9059 15.3141 82.8617 16.9866 80.7728 18.3724L78.9666 19.5193L81.6943 23.6051C82.0139 24.1068 82.3699 24.4891 82.7632 24.7519C83.1808 25.0147 83.5252 25.1701 83.7953 25.2179C84.0902 25.2418 84.3235 25.2776 84.4957 25.3254C84.6679 25.3731 84.7416 25.4687 84.7169 25.6121C84.7169 26.1855 84.5326 26.6992 84.1639 27.1532C83.7953 27.5833 83.353 27.7983 82.837 27.7983C82.7385 27.7983 82.5421 27.7983 82.2472 27.7983C81.6327 27.7983 80.8712 27.0696 79.9618 25.6121C79.9371 25.5404 79.9002 25.4807 79.8512 25.4329C79.8265 25.3851 79.3841 24.6922 78.5243 23.3542C77.6644 21.9923 76.9882 20.9768 76.4969 20.3078C75.8582 20.3078 75.3295 20.1405 74.9119 19.806C74.4943 19.4715 74.2853 18.9936 74.2853 18.3724C74.2853 17.7512 74.6418 17.2972 75.3542 17.0105C75.5506 16.9388 75.7476 16.903 75.944 16.903C76.509 16.903 77.1115 17.2016 77.7502 17.799C78.6838 17.3928 79.5074 16.7715 80.2199 15.9353C80.9571 15.0991 81.3257 14.3464 81.3257 13.6774C81.3257 12.2438 80.5637 11.527 79.0403 11.527C77.6644 11.527 76.3616 12.196 75.1331 13.534C73.9046 14.872 73.0568 16.4251 72.5897 18.1932ZM94.4026 24.5727C94.6485 24.5727 95.4468 22.3267 96.7985 17.8348C98.1503 13.319 98.9117 10.8579 99.0839 10.4518C99.4278 9.59162 99.9686 9.16154 100.706 9.16154C101.468 9.16154 101.996 9.57969 102.291 10.4159L104.429 17.8348C105.805 22.3267 106.591 24.5727 106.788 24.5727C107.058 24.5727 107.869 22.3387 109.221 17.8707C109.54 16.8432 109.946 15.4455 110.437 13.6774L111.322 10.5593C111.617 9.62746 112.071 9.16154 112.686 9.16154C113.054 9.16154 113.361 9.26906 113.607 9.4841C113.877 9.69914 114.013 9.98586 114.013 10.3443C114.013 10.7027 113.791 11.5509 113.349 12.8889C112.907 14.2269 112.587 15.1468 112.391 15.6486C112.218 16.1503 111.653 17.8348 110.695 20.702C109.761 23.5692 109.098 25.4687 108.705 26.4006C108.336 27.3324 107.66 27.7983 106.677 27.7983C105.694 27.7983 104.982 27.1771 104.539 25.9347C103.655 23.4498 102.807 20.8335 101.996 18.0857C101.185 15.3141 100.681 13.9283 100.485 13.9283C100.312 13.9283 100.079 14.4061 99.7843 15.3619L98.8259 18.6591C97.5479 23.0316 96.6632 25.6599 96.1719 26.5439C95.7543 27.3802 95.0782 27.7983 94.1446 27.7983C93.211 27.7983 92.5106 27.1413 92.0435 25.8271C91.9946 25.6838 91.9208 25.4807 91.8223 25.2179C91.7239 24.9551 91.5891 24.5847 91.4169 24.1068C91.2694 23.629 91.1099 23.1511 90.9377 22.6732C90.7902 22.1954 90.3727 20.9529 89.6844 18.9459L88.6892 16.1145C88.468 15.4694 88.2221 14.7765 87.952 14.0358C87.2395 12.1482 86.883 10.9894 86.883 10.5593C86.883 10.1053 87.0057 9.75889 87.2516 9.51994C87.5217 9.28099 87.8414 9.16154 88.21 9.16154C88.9224 9.16154 89.4143 9.57969 89.6844 10.4159C89.7092 10.4399 90.0283 11.4911 90.6428 13.5699L91.8223 17.3689C91.9208 17.6317 92.0556 18.014 92.2278 18.5158C92.8176 20.4034 93.2968 21.8847 93.6654 22.9599C94.034 24.0351 94.2799 24.5727 94.4026 24.5727ZM119.252 18.5158C119.252 20.4989 119.817 22.1834 120.948 23.5692C122.078 24.9551 123.491 25.6479 125.187 25.6479C126.906 25.6479 128.357 24.9551 129.536 23.5692C130.74 22.1595 131.342 20.4631 131.342 18.4799C131.342 16.4968 130.765 14.8123 129.61 13.4265C128.479 12.0168 127.066 11.3119 125.371 11.3119C123.699 11.3119 122.25 12.0168 121.021 13.4265C119.842 14.8362 119.252 16.5327 119.252 18.5158ZM119.068 25.2537C117.446 23.4139 116.635 21.1679 116.635 18.5158C116.635 15.8636 117.458 13.6176 119.104 11.7779C120.751 9.91418 122.827 8.98234 125.334 8.98234C127.84 8.98234 129.905 9.90225 131.527 11.742C133.148 13.5579 133.959 15.8039 133.959 18.4799C133.959 21.1321 133.124 23.3781 131.453 25.2179C129.806 27.0576 127.73 27.9775 125.223 27.9775C122.741 27.9775 120.69 27.0696 119.068 25.2537ZM141.129 19.2326L141.24 25.9705C141.24 27.1891 140.773 27.7983 139.839 27.7983C138.709 27.7983 138.144 26.9859 138.144 25.3612C138.144 23.7126 138.39 21.3232 138.881 18.1932C138.881 17.1897 138.77 15.7919 138.549 13.9999C138.353 12.184 138.254 11.085 138.254 10.7027C138.254 10.3203 138.39 9.97393 138.66 9.6633C138.93 9.32881 139.274 9.16154 139.692 9.16154C140.109 9.16154 140.454 9.32881 140.724 9.6633C140.994 9.97393 141.129 10.2965 141.129 10.631C141.129 10.9655 141.117 11.5031 141.093 12.2438C141.093 12.9845 141.093 13.4982 141.093 13.7849C141.56 12.5903 142.321 11.5151 143.378 10.5593C144.459 9.62746 145.528 9.16154 146.585 9.16154C147.666 9.16154 148.514 9.37658 149.128 9.80666C149.767 10.2128 150.087 10.6787 150.087 11.2044C150.087 11.7301 149.951 12.1363 149.681 12.423C149.411 12.7097 149.054 12.8531 148.612 12.8531C148.195 12.8531 147.727 12.638 147.211 12.2079C146.744 11.7539 146.352 11.527 146.032 11.527C145.221 11.527 144.275 12.3871 143.194 14.1075C142.113 15.8039 141.424 17.5123 141.129 19.2326ZM179.951 16.1503L179.767 21.7772V23.3183C179.816 24.2979 180.062 24.8834 180.504 25.0745C180.676 25.1223 180.873 25.1701 181.094 25.2179C181.315 25.2418 181.463 25.2776 181.536 25.3254C181.635 25.3731 181.684 25.4687 181.684 25.6121C181.684 26.2333 181.475 26.759 181.057 27.1891C180.664 27.5952 180.197 27.7983 179.656 27.7983C178.747 27.7983 178.108 27.4519 177.74 26.759C177.371 26.0661 177.187 25.0028 177.187 23.5692L177.334 16.9747C177.334 15.326 177.002 14.0119 176.339 13.0323C175.675 12.0287 174.766 11.527 173.611 11.527C172.456 11.527 171.326 12.2079 170.22 13.5699C169.114 14.9318 168.34 16.4729 167.898 18.1932L168.008 25.9705C168.008 27.1891 167.541 27.7983 166.608 27.7983C165.477 27.7983 164.912 26.9859 164.912 25.3612C164.912 23.7126 165.158 21.3232 165.649 18.1932C165.649 13.7491 164.396 11.527 161.889 11.527C160.735 11.527 159.604 12.2079 158.498 13.5699C157.392 14.9318 156.618 16.4729 156.176 18.1932L156.287 25.9705C156.287 27.1891 155.82 27.7983 154.886 27.7983C153.755 27.7983 153.19 26.9859 153.19 25.3612C153.19 23.7126 153.436 21.3232 153.928 18.1932C153.928 17.1897 153.817 15.78 153.596 13.9641C153.399 12.1482 153.301 11.0491 153.301 10.6668C153.301 10.2845 153.436 9.93809 153.706 9.62746C153.976 9.31683 154.321 9.16154 154.738 9.16154C155.156 9.16154 155.5 9.31683 155.771 9.62746C156.041 9.93809 156.176 10.2726 156.176 10.631C156.176 10.9894 156.164 11.527 156.139 12.2438C156.139 12.9606 156.139 13.4504 156.139 13.7132C157.786 10.6787 159.874 9.16154 162.406 9.16154C163.831 9.16154 164.998 9.56771 165.907 10.3801C166.841 11.1925 167.492 12.3035 167.861 13.7132C169.508 10.6787 171.596 9.16154 174.127 9.16154C175.995 9.16154 177.42 9.8425 178.403 11.2044C179.435 12.5663 179.951 14.215 179.951 16.1503Z" fill="white"/>
</svg>
