<svg width="11" height="12" viewBox="0 0 11 12" fill="none" xmlns="http://www.w3.org/2000/svg">
<g clip-path="url(#clip0)">
<path d="M10.6074 1.19224L1.1756 10.758C0.959155 10.9776 0.608228 10.9776 0.391783 10.758C0.175337 10.5385 0.175338 10.1826 0.391783 9.96309L9.82361 0.397292C10.0401 0.177772 10.391 0.177772 10.6074 0.397291C10.8239 0.616811 10.8239 0.972723 10.6074 1.19224Z" fill="#4D781A"/>
<path d="M9.82447 10.7583L0.392642 1.19252C0.176196 0.973 0.176196 0.617088 0.392641 0.397569C0.609086 0.17805 0.960014 0.17805 1.17646 0.39757L10.6083 9.96337C10.8247 10.1829 10.8247 10.5388 10.6083 10.7583C10.3918 10.9778 10.0409 10.9778 9.82447 10.7583Z" fill="#4D781A"/>
</g>
<defs>
<clipPath id="clip0">
<rect width="11" height="12" fill="white"/>
</clipPath>
</defs>
</svg>
