<svg width="17" height="16" viewBox="0 0 17 16" fill="none" xmlns="http://www.w3.org/2000/svg">
<path d="M8.06137 2.88535L8.49999 3.68693L8.93862 2.88536C9.19991 2.40788 9.63569 1.76782 10.2766 1.27219L9.97067 0.876672L10.2766 1.27219C10.9365 0.761807 11.6752 0.507812 12.4844 0.507812C14.7451 0.507812 16.5 2.35057 16.5 4.90574C16.5 6.26025 15.9631 7.42118 14.9458 8.64874C13.9158 9.8916 12.4322 11.158 10.5877 12.7299L10.5877 12.7299L10.5873 12.7303C9.96462 13.2609 9.25673 13.8642 8.52054 14.508L8.52037 14.5081C8.51507 14.5128 8.50799 14.5156 8.5 14.5156C8.49202 14.5156 8.48497 14.5128 8.4797 14.5082L8.47945 14.508C7.74368 13.8645 7.03609 13.2615 6.41402 12.7314L6.41274 12.7303L6.41273 12.7303C4.56795 11.1582 3.0843 9.89168 2.05426 8.64878C1.03689 7.42117 0.5 6.26024 0.5 4.90574C0.5 2.35057 2.25494 0.507812 4.51562 0.507812C5.32484 0.507812 6.06351 0.761807 6.72345 1.27219L7.02933 0.876672L6.72345 1.27219C7.36431 1.76782 7.8001 2.40785 8.06137 2.88535Z" fill="white" stroke="#80A751"/>
</svg>
