<svg width="37" height="37" viewBox="0 0 37 37" fill="none" xmlns="http://www.w3.org/2000/svg">
<path d="M11.921 23.9203H11.9227C11.9241 23.9203 11.9255 23.92 11.9269 23.92H31.5801C32.0639 23.92 32.4893 23.5991 32.6223 23.1339L36.9582 7.95809C37.0517 7.63092 36.9862 7.27919 36.7815 7.00763C36.5766 6.73607 36.2562 6.57629 35.916 6.57629H9.42107L8.64619 3.0892C8.53581 2.59322 8.09601 2.24036 7.58789 2.24036H1.08398C0.485252 2.24036 0 2.72561 0 3.32434C0 3.92307 0.485252 4.40833 1.08398 4.40833H6.71845C6.85564 5.02625 10.4266 21.0958 10.6321 22.0202C9.48007 22.521 8.67188 23.6697 8.67188 25.004C8.67188 26.7971 10.1307 28.256 11.9238 28.256H31.5801C32.1788 28.256 32.6641 27.7707 32.6641 27.172C32.6641 26.5733 32.1788 26.088 31.5801 26.088H11.9238C11.3262 26.088 10.8398 25.6016 10.8398 25.004C10.8398 24.4073 11.3245 23.9217 11.921 23.9203ZM34.4789 8.74426L30.7623 21.7521H12.7933L9.90265 8.74426H34.4789Z" fill="white"/>
<path d="M10.8398 31.5078C10.8398 33.3009 12.2987 34.7598 14.0918 34.7598C15.8849 34.7598 17.3438 33.3009 17.3438 31.5078C17.3438 29.7147 15.8849 28.2559 14.0918 28.2559C12.2987 28.2559 10.8398 29.7147 10.8398 31.5078ZM14.0918 30.4238C14.6894 30.4238 15.1758 30.9102 15.1758 31.5078C15.1758 32.1054 14.6894 32.5918 14.0918 32.5918C13.4942 32.5918 13.0078 32.1054 13.0078 31.5078C13.0078 30.9102 13.4942 30.4238 14.0918 30.4238Z" fill="white"/>
<path d="M26.1602 31.5078C26.1602 33.3009 27.619 34.7598 29.4121 34.7598C31.2052 34.7598 32.6641 33.3009 32.6641 31.5078C32.6641 29.7147 31.2052 28.2559 29.4121 28.2559C27.619 28.2559 26.1602 29.7147 26.1602 31.5078ZM29.4121 30.4238C30.0097 30.4238 30.4961 30.9102 30.4961 31.5078C30.4961 32.1054 30.0097 32.5918 29.4121 32.5918C28.8145 32.5918 28.3281 32.1054 28.3281 31.5078C28.3281 30.9102 28.8145 30.4238 29.4121 30.4238Z" fill="white"/>
</svg>
