<svg width="36" height="35" viewBox="0 0 36 35" fill="none" xmlns="http://www.w3.org/2000/svg">
<path d="M21.3452 7.6969H5.28931V10.2271H21.3452V7.6969Z" fill="white"/>
<path d="M29.2093 26.721C30.454 24.5834 30.0931 21.8597 28.2827 20.1015C27.2116 19.0602 25.7875 18.4855 24.2677 18.4855C22.7479 18.4855 21.3218 19.0602 20.2508 20.1015C19.1797 21.1428 18.5886 22.5274 18.5886 24.0068C18.5886 25.4805 19.1797 26.867 20.2508 27.9121C21.3218 28.9496 22.746 29.5243 24.2638 29.5243C25.2529 29.5243 26.2108 29.2797 27.0614 28.8131L33.4252 35.0001L35.5732 32.91L29.2093 26.721ZM26.6576 26.3284C25.3856 27.565 23.1537 27.565 21.8817 26.3284C20.5649 25.0462 20.5649 22.9655 21.8817 21.6833C22.5177 21.065 23.3683 20.7236 24.2716 20.7236C25.1749 20.7236 26.0216 21.065 26.6595 21.6833C27.2975 22.3017 27.6486 23.1286 27.6486 24.0068C27.6486 24.885 27.2955 25.7081 26.6576 26.3284Z" fill="white"/>
<path d="M26.0097 30.9164H3.62307C3.268 30.9164 2.98122 30.6357 2.98122 30.2943V3.10681C2.98122 2.76161 3.268 2.48279 3.62307 2.48279H26.0097C26.3647 2.48279 26.6496 2.76161 26.6496 3.10681V16.9756C27.5762 17.1728 28.4405 17.5579 29.2053 18.1079V3.10681C29.2053 1.39408 27.7733 0 26.0097 0H3.62307C1.8614 0 0.42749 1.39408 0.42749 3.10681V30.2943C0.42749 32.0051 1.8614 33.3992 3.62307 33.3992H26.0097C27.346 33.3992 27.9781 33.0919 28.4542 31.9577L27.2953 30.831C26.8681 31.0055 26.1931 30.9164 26.0097 30.9164Z" fill="white"/>
<path d="M21.3452 14.8286H5.28931V17.3588H21.3452V14.8286Z" fill="white"/>
</svg>
