<svg width="17" height="16" viewBox="0 0 17 16" fill="none" xmlns="http://www.w3.org/2000/svg">
<path d="M12.4844 0C11.5619 0 10.7161 0.29232 9.97067 0.868859C9.25597 1.42159 8.78014 2.1256 8.5 2.63752C8.21986 2.12556 7.74403 1.42159 7.02933 0.868859C6.28386 0.29232 5.43811 0 4.51562 0C1.94132 0 0 2.10564 0 4.89793C0 7.91456 2.42194 9.9785 6.08842 13.103C6.71105 13.6336 7.41678 14.2351 8.1503 14.8765C8.24699 14.9612 8.37117 15.0078 8.5 15.0078C8.62883 15.0078 8.75301 14.9612 8.8497 14.8766C9.58329 14.235 10.289 13.6336 10.912 13.1027C14.5781 9.9785 17 7.91456 17 4.89793C17 2.10564 15.0587 0 12.4844 0Z" fill="#80A751"/>
</svg>
