<svg width="40" height="33" viewBox="0 0 40 33" fill="none" xmlns="http://www.w3.org/2000/svg">
<path d="M29.2832 0C27.1194 0 25.1357 0.64277 23.3871 1.9105C21.7107 3.12587 20.5946 4.67388 19.9375 5.79953C19.2804 4.67381 18.1643 3.12587 16.4879 1.9105C14.7393 0.64277 12.7556 0 10.5918 0C4.55354 0 0 4.63 0 10.7698C0 17.403 5.68086 21.9413 14.2809 28.8116C15.7414 29.9784 17.3967 31.3009 19.1173 32.7113C19.344 32.8975 19.6353 33 19.9375 33C20.2397 33 20.531 32.8975 20.7577 32.7114C22.4784 31.3007 24.1337 29.9783 25.595 28.8109C34.1941 21.9413 39.875 17.403 39.875 10.7698C39.875 4.63 35.3215 0 29.2832 0Z" fill="white"/>
</svg>
